<svg width="207" height="53" fill="none" xmlns="http://www.w3.org/2000/svg"><path d="M61.297 11.842l-1.057 3.17s-.088.088-.176.088h-2.466c-.176 0-.176-.088-.176-.176l4.227-12.24c.088-.176.176-.44.176-1.233 0-.088.088-.176.088-.176h3.435c.088 0 .176 0 .176.088l4.755 13.561c0 .088 0 .177-.088.177h-2.73c-.088 0-.176 0-.264-.177l-1.057-3.17h-4.843v.088zM65.436 9.2c-.44-1.409-1.321-3.962-1.674-5.46-.352 1.41-1.056 3.7-1.673 5.46h3.347zm5.548.793c0-2.994 2.29-5.548 6.165-5.548h.704V.306c-.088-.176 0-.176.088-.176h2.642c.088 0 .088 0 .088.088v12.505c0 .528 0 1.144.088 1.585 0 .088 0 .176-.176.176-1.497.616-2.818.88-4.139.88-3.082 0-5.46-1.849-5.46-5.371zm6.781-2.994c-.176-.088-.528-.088-.792-.088-1.585 0-2.994.968-2.994 2.994 0 2.113 1.232 2.994 2.818 2.994.352 0 .704 0 .968-.088V6.999zm15.328 2.817c0 3.347-2.114 5.548-5.196 5.548-3.61 0-5.196-2.73-5.196-5.46 0-2.994 2.026-5.46 5.284-5.46 3.346-.088 5.108 2.554 5.108 5.372zm-7.486 0c0 1.85.88 3.082 2.29 3.082 1.233 0 2.113-1.056 2.113-2.994 0-1.673-.704-2.994-2.29-2.994-1.144-.088-2.113 1.057-2.113 2.906zM97.65.13c.176 0 .264 0 .264.176v4.315a5.679 5.679 0 011.761-.264c3.082 0 5.108 2.201 5.108 5.02 0 3.962-3.17 5.9-6.34 5.9-1.145 0-2.202-.177-3.347-.529-.088 0-.088-.088-.088-.176V.306c0-.088 0-.176.176-.176h2.466zm1.497 6.78c-.705 0-.969.089-1.233.177v5.724c.264.088.528.088.793.088 1.585 0 3.082-.969 3.082-3.17-.088-1.938-1.145-2.818-2.642-2.818zm10.066 3.699c.088 1.233.969 2.201 2.994 2.201.969 0 1.762-.176 2.642-.528.088 0 .088 0 .088.088v2.025c0 .177 0 .177-.176.265-.881.44-1.761.616-3.258.616-3.963 0-5.372-2.73-5.372-5.372 0-2.906 1.761-5.548 5.108-5.548 3.17 0 4.491 2.466 4.491 4.58 0 .616 0 1.144-.088 1.409a.19.19 0 01-.176.176c-.265 0-1.057.088-2.202.088h-4.051zm2.73-2.026H113v-.176c0-.528-.44-1.673-1.761-1.673s-1.938.969-2.026 1.85h2.73zM58.3 35.707c-.088-.088-.177-.176-.177-.353v-2.553c0-.088.089-.177.177-.088 1.144.704 2.553 1.056 3.786 1.056 1.585 0 2.202-.528 2.202-1.32 0-.705-.528-1.145-1.938-1.762l-1.056-.44c-2.642-1.057-3.347-2.378-3.347-4.051 0-2.29 1.761-4.139 5.108-4.139 1.32 0 2.554.176 3.258.529.088.088.088.176.088.264v2.377c0 .088-.088.177-.176.088-.88-.528-2.025-.704-3.258-.704-1.41.176-2.026.704-2.026 1.409 0 .616.44 1.057 2.026 1.761l.793.352c2.818 1.145 3.61 2.466 3.61 4.227 0 2.554-2.113 4.14-5.284 4.14-1.585 0-2.906-.353-3.786-.793zm20.88-4.755c0 3.346-2.113 5.548-5.195 5.548-3.61 0-5.196-2.73-5.196-5.46 0-2.994 2.025-5.46 5.284-5.46 3.346-.088 5.108 2.554 5.108 5.372zm-7.397 0c0 1.85.88 3.082 2.29 3.082 1.233 0 2.113-1.057 2.113-2.994 0-1.673-.704-2.994-2.29-2.994-1.232-.088-2.113 1.057-2.113 2.906zm9.331-9.512c0-.088 0-.176.176-.176h2.553c.177 0 .177.088.177.176v11.8c0 .617.176.793.704.793h.352c.088 0 .088 0 .088.176v1.85c0 .176 0 .176-.176.264-.264.088-.616.176-1.32.176-1.498 0-2.643-.529-2.643-2.906V21.44h.088zM95.91 33.945c0 1.057.089 1.761.089 2.202 0 .088 0 .176-.176.176H93.62c-.176 0-.176 0-.264-.176 0-.176-.088-.44-.088-.617a4.562 4.562 0 01-2.906 1.057c-2.114 0-3.611-1.145-3.611-4.05v-6.43c0-.175 0-.175.176-.175h2.554c.088 0 .176 0 .176.176v6.164c0 1.145.528 1.85 1.673 1.85.705 0 1.145-.177 1.673-.617v-7.397a.19.19 0 01.177-.176h2.553c.177 0 .177 0 .177.176v7.837zm8.003 1.938c0 .088 0 .264-.176.264a6.264 6.264 0 01-1.85.264c-1.849 0-2.906-.88-2.906-2.994v-5.284h-1.233a.19.19 0 01-.176-.176v-2.113c0-.176 0-.176.176-.176h1.233c0-.705.088-1.938.176-2.554a.19.19 0 01.177-.176l2.465-.353c.088 0 .176 0 .176.088-.088.617-.088 1.938-.088 2.907h1.938c.088 0 .176 0 .176.176v2.113c0 .088 0 .088-.176.176h-2.026v4.667c0 .97.265 1.321 1.145 1.321.264 0 .44 0 .705-.088.088 0 .176 0 .176.176v1.762h.088zm1.681-12.945c0-.969.704-1.585 1.673-1.585 1.057 0 1.585.704 1.585 1.585 0 .968-.616 1.673-1.673 1.673s-1.585-.617-1.585-1.673zm.088 2.994c0-.088 0-.176.176-.176h2.642c.088 0 .176 0 .176.176v10.127c0 .088 0 .176-.176.176h-2.554c-.176 0-.176-.088-.176-.176V25.932h-.088zm15.331 5.019c0 3.347-2.114 5.548-5.196 5.548-3.611 0-5.196-2.73-5.196-5.46 0-2.994 2.026-5.46 5.284-5.46 3.346-.087 5.108 2.555 5.108 5.372zm-7.486 0c0 1.85.881 3.083 2.29 3.083 1.233 0 2.113-1.057 2.113-2.994 0-1.674-.704-2.994-2.289-2.994-1.145-.089-2.114 1.056-2.114 2.905zm9.321-2.73c0-.704 0-1.849-.088-2.29 0-.087 0-.175.176-.175h2.201c.177 0 .265.088.265.176.088.176.088.44.176.704.88-.704 1.849-1.056 2.994-1.056 1.585 0 3.523.88 3.523 4.227v6.252c0 .088 0 .176-.177.176h-2.553c-.177 0-.177-.088-.177-.176V30.07c0-1.233-.528-1.938-1.673-1.938-.704 0-1.321.265-1.761.617v7.309a.19.19 0 01-.176.176h-2.554c-.176 0-.176-.088-.176-.176V28.22zm16.92-5.636c0-.088 0-.176.088-.176.881 0 2.554-.088 4.139-.088 4.227 0 5.724 2.378 5.724 4.667 0 3.435-2.642 4.844-5.9 4.844h-1.233v4.139c0 .088 0 .176-.176.176h-2.642a.19.19 0 01-.176-.176V22.586h.176zm2.906 6.693h1.145c1.673 0 2.994-.528 2.994-2.201 0-1.321-.881-2.202-2.73-2.202h-1.409v4.403zm16.728 4.667v1.586c-1.849.704-3.082.968-4.579.968-2.378 0-4.227-1.056-4.227-3.522 0-2.202 1.937-3.435 4.755-3.435h1.233v-.176c0-.44-.264-1.32-2.025-1.32-1.057 0-2.026.175-2.818.528-.089 0-.177 0-.177-.088v-2.114c0-.088 0-.176.177-.176.968-.44 2.113-.616 3.346-.616 3.082 0 4.403 1.849 4.403 4.315v4.05h-.088zm-2.818-2.201c-.352 0-.616-.088-1.057-.088-1.497 0-2.113.528-2.113 1.233 0 .704.528 1.232 1.849 1.232.528 0 .881-.088 1.321-.176v-2.201zm7.665-5.988c.176 0 .176.088.264.176.088.264.176.705.264 1.145.705-.793 1.849-1.585 3.346-1.585.089 0 .177 0 .177.176v2.642c0 .088 0 .176-.177.176-1.497-.088-2.73.44-3.17.88v6.693c0 .088 0 .176-.176.176h-2.554c-.176 0-.176-.088-.176-.176V28.75c0-.88 0-2.113-.088-2.906 0-.088 0-.176.088-.176h2.202v.088zm11.521 10.127c0 .088 0 .264-.176.264a6.257 6.257 0 01-1.849.264c-1.85 0-2.906-.88-2.906-2.994v-5.284h-1.233a.19.19 0 01-.176-.176v-2.113c0-.176 0-.176.176-.176h1.233c0-.705.088-1.938.176-2.554a.19.19 0 01.176-.176l2.466-.353c.088 0 .176 0 .176.088-.088.617-.088 1.938-.088 2.907h1.937c.088 0 .176 0 .176.176v2.113c0 .088 0 .088-.176.176h-2.025v4.667c0 .97.264 1.321 1.145 1.321.264 0 .44 0 .704-.088.088 0 .176 0 .176.176v1.762h.088zm1.769-7.662c0-.704 0-1.849-.088-2.29 0-.087 0-.175.176-.175h2.202c.176 0 .264.088.264.176.088.176.088.44.176.704.881-.704 1.85-1.056 2.994-1.056 1.586 0 3.523.88 3.523 4.227v6.252c0 .088 0 .176-.176.176h-2.554c-.176 0-.176-.088-.176-.176V30.07c0-1.233-.529-1.938-1.673-1.938a2.84 2.84 0 00-1.762.617v7.309a.19.19 0 01-.176.176h-2.554c-.176 0-.176-.088-.176-.176V28.22zm14.192 3.523c.088 1.233.968 2.202 2.994 2.202.969 0 1.761-.176 2.642-.529.088 0 .088 0 .088.088v2.026c0 .176 0 .176-.176.264-.881.44-1.762.616-3.259.616-3.963 0-5.372-2.73-5.372-5.371 0-2.906 1.762-5.548 5.108-5.548 3.17 0 4.491 2.465 4.491 4.579 0 .616 0 1.145-.088 1.409a.19.19 0 01-.176.176c-.264 0-1.057.088-2.201.088h-4.051zm2.818-2.025h1.057v-.177c0-.528-.441-1.673-1.762-1.673s-1.937.969-2.025 1.85h2.73zm8.002-3.963c.177 0 .177.088.265.176.088.264.176.705.264 1.145.704-.793 1.849-1.585 3.346-1.585.088 0 .176 0 .176.176v2.642c0 .088 0 .176-.176.176-1.497-.088-2.73.44-3.17.88v6.693c0 .088 0 .176-.176.176h-2.554c-.176 0-.176-.088-.176-.176V28.75c0-.88 0-2.113-.088-2.906 0-.088 0-.176.088-.176h2.201v.088zM58.219 45.217c0-.088 0-.088.088-.088h2.377c2.466 0 2.819 1.233 2.819 2.025 0 .793-.44 1.233-.705 1.497.44.176 1.057.705 1.057 1.762 0 1.409-1.233 2.29-3.17 2.29h-2.378c-.088 0-.088-.089-.088-.089v-7.397zm1.585 2.818h.792c.353 0 .881 0 1.057.088.176-.176.352-.44.352-.793 0-.616-.44-.88-1.32-.88h-.793v1.585h-.088zm0 3.258h.792c.97 0 1.586-.352 1.586-.968 0-.353-.177-.705-.705-.881-.176-.088-.44-.088-.704-.088h-.97v1.937zm5.903 1.322c-.088 0-.088 0-.088-.088v-7.31c0-.087 0-.087.088-.087h2.378c1.937 0 2.994.792 2.994 2.29 0 .968-.616 1.673-1.409 2.025.352.528 1.673 2.466 2.026 3.082 0 .088.088.176 0 .176h-1.674c-.088 0-.176 0-.176-.088-.352-.528-1.057-1.761-1.497-2.466-.088-.176-.176-.176-.264-.176h-.793v2.642c0 .088 0 .088-.088.088h-1.497v-.088zm2.378-4.139c.88 0 1.409-.352 1.409-1.056 0-.705-.617-.97-1.41-.97h-.88v2.026h.88zm11.615.352c0 2.377-1.497 3.874-3.61 3.874-2.203 0-3.612-1.673-3.612-3.874 0-2.114 1.41-3.875 3.611-3.875 2.29 0 3.61 1.761 3.61 3.875zm-3.523 2.465c1.233 0 1.938-.968 1.938-2.465 0-1.497-.705-2.466-1.938-2.466-1.145 0-1.937.88-1.937 2.466-.088 1.409.616 2.465 1.937 2.465zm5.38 1.322c-.088 0-.088 0-.088-.088v-7.31c0-.088 0-.088.088-.088h1.85c.087 0 .087 0 .175.089.793 1.408 2.29 4.402 2.642 5.283v-5.195c0-.088 0-.088.088-.088h1.321c.088 0 .088 0 .088.087v7.31c0 .088 0 .088-.088.088H85.96c-.088 0-.088 0-.176-.088-.617-1.41-2.378-4.58-2.818-5.812.088.704.088 1.144.088 2.201v3.523c0 .088 0 .088-.088.088h-1.41zm7.932 0c-.089 0-.089 0-.089-.088V51.47l3.787-4.932h-3.61c-.088 0-.088 0-.088-.088l.176-1.233c0-.088.088-.088.088-.088h5.372c.088 0 .088 0 .088.089v.968c0 .088 0 .088-.088.176l-3.7 4.844h3.876c.088 0 .088.088.088.088l-.176 1.233c0 .088 0 .088-.088.088h-5.636zm12.319-.176c0 .088 0 .088-.088.088h-4.667c-.088 0-.088 0-.088-.088v-7.31c0-.087 0-.087.088-.087h4.491c.088 0 .088 0 .088.088l.088 1.232c0 .088 0 .088-.088.088h-3.17v1.497h2.994c.088 0 .088 0 .088.089v1.233c0 .087-.088.087-.088.087H98.55v1.674h3.346c.088 0 .088 0 .088.088l-.176 1.32z" fill="#060606"/><path d="M0 0h16.354L0 39.886V0zm27.496 0h16.558v39.374L27.496 0zm-5.384 15.251l9.03 23.919h-5.588l-3.85-7.575H15.57l6.541-16.344z" fill="#ED1C24"/></svg>